<svg xmlns="http://www.w3.org/2000/svg" xmlns:xlink="http://www.w3.org/1999/xlink" width="5000" zoomAndPan="magnify" viewBox="0 0 3750 3749.999967" height="5000" preserveAspectRatio="xMidYMid meet" version="1.0"><defs><g/><clipPath id="9d25651004"><path d="M 187.5 187.5 L 3562.5 187.5 L 3562.5 3562.5 L 187.5 3562.5 Z M 187.5 187.5 " clip-rule="nonzero"/></clipPath></defs><rect x="-375" width="4500" fill="#ffffff" y="-374.999997" height="4499.99996" fill-opacity="1"/><rect x="-375" width="4500" fill="#ffffff" y="-374.999997" height="4499.99996" fill-opacity="1"/><rect x="-375" width="4500" fill="#ffffff" y="-374.999997" height="4499.99996" fill-opacity="1"/><g clip-path="url(#9d25651004)"><path fill="#2c2e30" d="M 187.5 187.5 L 3562.5 187.5 L 3562.5 3562.5 L 187.5 3562.5 Z M 187.5 187.5 " fill-opacity="1" fill-rule="nonzero"/></g><g fill="#ffffff" fill-opacity="1"><g transform="translate(484.39972, 1219.999989)"><g><path d="M 579.953125 0 L 436.953125 0 L 436.953125 -285.96875 L 222.984375 -285.96875 L 222.984375 0 L 80 0 L 80 -714.9375 L 222.984375 -714.9375 L 222.984375 -428.953125 L 436.953125 -428.953125 L 436.953125 -714.9375 L 579.953125 -714.9375 Z M 579.953125 0 "/></g></g></g><g fill="#ffffff" fill-opacity="1"><g transform="translate(535.42703, 3239.469536)"><g><path d="M 500.984375 0 L 22 0 C 65.332031 -96 108.5 -192.160156 151.5 -288.484375 C 194.5 -384.816406 237.328125 -480.648438 279.984375 -575.984375 L 60 -575.984375 L 60 -714.984375 L 492.984375 -714.984375 L 235 -144 L 500.984375 -144 Z M 500.984375 0 "/></g></g></g><g fill="#ffffff" fill-opacity="1"><g transform="translate(1451.459463, 1219.999989)"><g><path d="M 423.953125 10 C 362.628906 10 308.800781 -0.332031 262.46875 -21 C 216.144531 -41.664062 177.648438 -69.492188 146.984375 -104.484375 C 116.316406 -139.484375 93.316406 -178.976562 77.984375 -222.96875 C 62.660156 -266.96875 55 -312.128906 55 -358.453125 C 55 -404.785156 62.660156 -449.953125 77.984375 -493.953125 C 93.316406 -537.953125 116.316406 -577.445312 146.984375 -612.4375 C 177.648438 -647.4375 216.144531 -675.269531 262.46875 -695.9375 C 308.800781 -716.601562 362.628906 -726.9375 423.953125 -726.9375 C 485.285156 -726.9375 539.113281 -716.601562 585.4375 -695.9375 C 631.769531 -675.269531 670.269531 -647.4375 700.9375 -612.4375 C 731.601562 -577.445312 754.597656 -537.953125 769.921875 -493.953125 C 785.253906 -449.953125 792.921875 -404.785156 792.921875 -358.453125 C 792.921875 -312.128906 785.253906 -266.96875 769.921875 -222.96875 C 754.597656 -178.976562 731.601562 -139.484375 700.9375 -104.484375 C 670.269531 -69.492188 631.769531 -41.664062 585.4375 -21 C 539.113281 -0.332031 485.285156 10 423.953125 10 Z M 423.953125 -137.984375 C 464.617188 -137.984375 499.617188 -145.984375 528.953125 -161.984375 C 558.285156 -177.984375 581.613281 -199.144531 598.9375 -225.46875 C 616.269531 -251.800781 627.9375 -280.632812 633.9375 -311.96875 C 639.9375 -343.300781 639.9375 -374.628906 633.9375 -405.953125 C 627.9375 -437.285156 616.269531 -466.117188 598.9375 -492.453125 C 581.613281 -518.785156 558.285156 -539.953125 528.953125 -555.953125 C 499.617188 -571.953125 464.617188 -579.953125 423.953125 -579.953125 C 383.296875 -579.953125 348.300781 -571.953125 318.96875 -555.953125 C 289.632812 -539.953125 266.300781 -518.785156 248.96875 -492.453125 C 231.644531 -466.117188 219.984375 -437.285156 213.984375 -405.953125 C 207.984375 -374.628906 207.984375 -343.300781 213.984375 -311.96875 C 219.984375 -280.632812 231.644531 -251.800781 248.96875 -225.46875 C 266.300781 -199.144531 289.632812 -177.984375 318.96875 -161.984375 C 348.300781 -145.984375 383.296875 -137.984375 423.953125 -137.984375 Z M 423.953125 -137.984375 "/></g></g></g><g fill="#ffffff" fill-opacity="1"><g transform="translate(2647.524738, 1219.999989)"><g><path d="M 222.984375 0 L 80 0 L 80 -713.9375 L 360.96875 -713.9375 C 400.957031 -713.9375 435.117188 -705.9375 463.453125 -689.9375 C 491.785156 -673.9375 514.285156 -652.9375 530.953125 -626.9375 C 547.617188 -600.9375 558.785156 -572.101562 564.453125 -540.4375 C 570.117188 -508.78125 570.117188 -477.285156 564.453125 -445.953125 C 558.785156 -414.628906 547.453125 -385.96875 530.453125 -359.96875 C 513.453125 -333.96875 490.785156 -312.96875 462.453125 -296.96875 C 434.117188 -280.96875 400.289062 -272.96875 360.96875 -272.96875 L 222.984375 -272.96875 Z M 222.984375 -411.96875 L 348.96875 -411.96875 C 368.300781 -411.96875 383.632812 -417.296875 394.96875 -427.953125 C 406.300781 -438.617188 413.960938 -451.953125 417.953125 -467.953125 C 421.953125 -483.953125 421.953125 -499.953125 417.953125 -515.953125 C 413.960938 -531.953125 406.300781 -545.285156 394.96875 -555.953125 C 383.632812 -566.617188 368.300781 -571.953125 348.96875 -571.953125 L 222.984375 -571.953125 Z M 222.984375 -411.96875 "/></g></g></g><g fill="#ffffff" fill-opacity="1"><g transform="translate(1548.45697, 3239.469536)"><g><path d="M 16 0 L 316.984375 -740.984375 L 331.984375 -740.984375 L 632.984375 0 L 471.984375 0 L 442.984375 -77 L 206 -77 L 178 0 Z M 257.984375 -211 L 389.984375 -211 L 324.984375 -396.984375 Z M 257.984375 -211 "/></g></g></g><g fill="#ffffff" fill-opacity="1"><g transform="translate(2612.660285, 3239.469536)"><g><path d="M 595.984375 -44 C 568.648438 -28.664062 539.484375 -16.832031 508.484375 -8.5 C 477.484375 -0.164062 444.984375 4 410.984375 4 C 352.316406 4 300.484375 -6 255.484375 -26 C 210.492188 -46 172.664062 -72.832031 142 -106.5 C 111.332031 -140.164062 88.164062 -178.160156 72.5 -220.484375 C 56.832031 -262.816406 48.664062 -306.648438 48 -351.984375 C 47.332031 -397.316406 54.164062 -441.316406 68.5 -483.984375 C 82.832031 -526.648438 105 -565.484375 135 -600.484375 C 165 -635.484375 202.992188 -663.816406 248.984375 -685.484375 C 294.984375 -707.148438 348.984375 -718.984375 410.984375 -720.984375 C 439.648438 -722.316406 465.816406 -720.984375 489.484375 -716.984375 C 513.148438 -712.984375 532.816406 -708.648438 548.484375 -703.984375 C 564.148438 -699.316406 573.984375 -696.316406 577.984375 -694.984375 L 560.984375 -549.984375 C 546.984375 -555.984375 527.984375 -562.148438 503.984375 -568.484375 C 479.984375 -574.816406 448.984375 -577.316406 410.984375 -575.984375 C 369.648438 -574.648438 334.484375 -565.648438 305.484375 -548.984375 C 276.484375 -532.316406 253.484375 -510.984375 236.484375 -484.984375 C 219.492188 -458.984375 208.332031 -430.648438 203 -399.984375 C 197.664062 -369.316406 198 -338.648438 204 -307.984375 C 210 -277.316406 221.828125 -249.148438 239.484375 -223.484375 C 257.148438 -197.828125 280.316406 -177.332031 308.984375 -162 C 337.648438 -146.664062 371.648438 -139 410.984375 -139 C 417.648438 -139 424.316406 -139.5 430.984375 -140.5 C 437.648438 -141.5 444.316406 -142.332031 450.984375 -143 L 450.984375 -357.984375 L 595.984375 -357.984375 Z M 595.984375 -44 "/></g></g></g><g fill="#ffffff" fill-opacity="1"><g transform="translate(624.974985, 2845.000444)"><g><path d="M 0 -899.96875 L 2499.90625 -899.96875 L 2499.90625 -999.96875 L 0 -999.96875 Z M 0 -899.96875 "/></g></g></g></svg>